<svg width="109" height="48" viewBox="0 0 109 48" fill="none" xmlns="http://www.w3.org/2000/svg">
<path d="M108.814 35.4H87.4062V13H90.6062V32.2H108.814V35.4Z" fill="white"/>
<path d="M84.1688 16.2H64.1688V35.4H60.9688V13H84.1688V16.2ZM81.4168 25.8H65.7687V22.6H81.4168V25.8Z" fill="white"/>
<path d="M55.597 35.4H52.397V29H34.509V25.8H52.397V16.2H40.909C39.4584 16.2 38.125 16.5627 36.909 17.288C35.693 17.992 34.7224 18.952 33.997 20.168C33.293 21.384 32.941 22.728 32.941 24.2V35.4H29.741V24.2C29.741 22.664 30.029 21.224 30.605 19.88C31.181 18.5147 31.981 17.32 33.005 16.296C34.029 15.2507 35.213 14.44 36.557 13.864C37.9224 13.288 39.373 13 40.909 13H55.597V35.4Z" fill="white"/>
<path d="M26.368 29C26.368 30.1733 26.08 31.2507 25.504 32.232C24.928 33.192 24.1493 33.96 23.168 34.536C22.208 35.112 21.1413 35.4 19.968 35.4H4.8V32.2H19.968C20.8427 32.2 21.5893 31.8907 22.208 31.272C22.848 30.632 23.168 29.8747 23.168 29C23.168 28.1253 22.848 27.3787 22.208 26.76C21.5893 26.12 20.8427 25.8 19.968 25.8H4.8V22.6H16.768C17.6427 22.6 18.3893 22.2907 19.008 21.672C19.648 21.032 19.968 20.2747 19.968 19.4C19.968 18.5253 19.648 17.7787 19.008 17.16C18.3893 16.52 17.6427 16.2 16.768 16.2H3.2V35.4H0V13H16.768C17.9413 13 19.008 13.288 19.968 13.864C20.9493 14.44 21.728 15.2187 22.304 16.2C22.88 17.16 23.168 18.2267 23.168 19.4C23.168 20.0613 23.072 20.7013 22.88 21.32C22.688 21.9173 22.4213 22.472 22.08 22.984C23.3387 23.4107 24.3627 24.1787 25.152 25.288C25.9627 26.376 26.368 27.6133 26.368 29Z" fill="white"/>
</svg>
