<svg width="114" height="91" viewBox="0 0 114 91" fill="none" xmlns="http://www.w3.org/2000/svg">
<g clip-path="url(#clip0_278_518)">
<path d="M28.056 50.6C28.056 51.7733 27.768 52.8507 27.192 53.832C26.616 54.792 25.8373 55.56 24.856 56.136C23.896 56.712 22.8293 57 21.656 57H6.488V53.8H21.656C22.5307 53.8 23.2773 53.4907 23.896 52.872C24.536 52.232 24.856 51.4747 24.856 50.6C24.856 49.7253 24.536 48.9787 23.896 48.36C23.2773 47.72 22.5307 47.4 21.656 47.4H6.488V44.2H18.456C19.3307 44.2 20.0773 43.8907 20.696 43.272C21.336 42.632 21.656 41.8747 21.656 41C21.656 40.1253 21.336 39.3787 20.696 38.76C20.0773 38.12 19.3307 37.8 18.456 37.8H4.888V57H1.688V34.6H18.456C19.6293 34.6 20.696 34.888 21.656 35.464C22.6373 36.04 23.416 36.8187 23.992 37.8C24.568 38.76 24.856 39.8267 24.856 41C24.856 41.6613 24.76 42.3013 24.568 42.92C24.376 43.5173 24.1093 44.072 23.768 44.584C25.0267 45.0107 26.0507 45.7787 26.84 46.888C27.6507 47.976 28.056 49.2133 28.056 50.6ZM57.285 57H54.085V50.6H36.197V47.4H54.085V37.8H42.597C41.1463 37.8 39.813 38.1627 38.597 38.888C37.381 39.592 36.4103 40.552 35.685 41.768C34.981 42.984 34.629 44.328 34.629 45.8V57H31.429V45.8C31.429 44.264 31.717 42.824 32.293 41.48C32.869 40.1147 33.669 38.92 34.693 37.896C35.717 36.8507 36.901 36.04 38.245 35.464C39.6103 34.888 41.061 34.6 42.597 34.6H57.285V57ZM85.8568 37.8H65.8568V57H62.6568V34.6H85.8568V37.8ZM83.1048 47.4H67.4568V44.2H83.1048V47.4ZM110.502 57H89.0943V34.6H92.2943V53.8H110.502V57Z" fill="#1F1F1F"/>
</g>
<defs>
<clipPath id="clip0_278_518">
<rect width="114" height="91" fill="white"/>
</clipPath>
</defs>
</svg>
